<mxfile host="app.diagrams.net" agent="Mozilla/5.0 (Windows NT 10.0; Win64; x64) AppleWebKit/537.36 (KHTML, like Gecko) Chrome/131.0.0.0 Safari/537.36" version="26.0.4">
  <diagram name="Page-1" id="O3KEoAqGzMoJatpTveBD">
    <mxGraphModel dx="1050" dy="557" grid="1" gridSize="10" guides="1" tooltips="1" connect="1" arrows="1" fold="1" page="1" pageScale="1" pageWidth="850" pageHeight="1100" math="0" shadow="0">
      <root>
        <mxCell id="0" />
        <mxCell id="1" parent="0" />
        <mxCell id="D6j8iwoR0o_ZyqedOxFU-46" style="edgeStyle=orthogonalEdgeStyle;rounded=0;orthogonalLoop=1;jettySize=auto;html=1;" edge="1" parent="1" source="D6j8iwoR0o_ZyqedOxFU-1">
          <mxGeometry relative="1" as="geometry">
            <mxPoint x="410" y="1140" as="targetPoint" />
          </mxGeometry>
        </mxCell>
        <mxCell id="D6j8iwoR0o_ZyqedOxFU-1" value="" style="rounded=0;whiteSpace=wrap;html=1;fillColor=#f5f5f5;fontColor=#333333;strokeColor=#666666;" vertex="1" parent="1">
          <mxGeometry x="35" y="10" width="750" height="1350" as="geometry" />
        </mxCell>
        <mxCell id="D6j8iwoR0o_ZyqedOxFU-9" value="" style="rounded=0;whiteSpace=wrap;html=1;fillColor=#CCE5FF;" vertex="1" parent="1">
          <mxGeometry x="50" y="30" width="720" height="60" as="geometry" />
        </mxCell>
        <mxCell id="D6j8iwoR0o_ZyqedOxFU-2" value="LOGO" style="rounded=1;whiteSpace=wrap;html=1;" vertex="1" parent="1">
          <mxGeometry x="80" y="40" width="100" height="40" as="geometry" />
        </mxCell>
        <mxCell id="D6j8iwoR0o_ZyqedOxFU-3" value="vacancies" style="rounded=1;whiteSpace=wrap;html=1;" vertex="1" parent="1">
          <mxGeometry x="480" y="50" width="70" height="20" as="geometry" />
        </mxCell>
        <mxCell id="D6j8iwoR0o_ZyqedOxFU-4" value="services" style="rounded=1;whiteSpace=wrap;html=1;" vertex="1" parent="1">
          <mxGeometry x="380" y="50" width="70" height="20" as="geometry" />
        </mxCell>
        <mxCell id="D6j8iwoR0o_ZyqedOxFU-5" value="Meet" style="rounded=1;whiteSpace=wrap;html=1;" vertex="1" parent="1">
          <mxGeometry x="280" y="50" width="70" height="20" as="geometry" />
        </mxCell>
        <mxCell id="D6j8iwoR0o_ZyqedOxFU-7" value="Get in Touch" style="rounded=0;whiteSpace=wrap;html=1;" vertex="1" parent="1">
          <mxGeometry x="630" y="45" width="110" height="30" as="geometry" />
        </mxCell>
        <mxCell id="D6j8iwoR0o_ZyqedOxFU-10" value="Pharagraph" style="rounded=0;whiteSpace=wrap;html=1;" vertex="1" parent="1">
          <mxGeometry x="70" y="170" width="670" height="20" as="geometry" />
        </mxCell>
        <mxCell id="D6j8iwoR0o_ZyqedOxFU-11" value="Topic (H1)" style="rounded=0;whiteSpace=wrap;html=1;" vertex="1" parent="1">
          <mxGeometry x="70" y="200" width="550" height="90" as="geometry" />
        </mxCell>
        <mxCell id="D6j8iwoR0o_ZyqedOxFU-12" value="" style="rounded=0;whiteSpace=wrap;html=1;fillColor=#CCE5FF;" vertex="1" parent="1">
          <mxGeometry x="200" y="350" width="580" height="180" as="geometry" />
        </mxCell>
        <mxCell id="D6j8iwoR0o_ZyqedOxFU-13" value="Topic" style="rounded=0;whiteSpace=wrap;html=1;align=center;" vertex="1" parent="1">
          <mxGeometry x="220" y="360" width="490" height="40" as="geometry" />
        </mxCell>
        <mxCell id="D6j8iwoR0o_ZyqedOxFU-14" value="About Paragraph" style="rounded=0;whiteSpace=wrap;html=1;" vertex="1" parent="1">
          <mxGeometry x="250" y="410" width="420" height="100" as="geometry" />
        </mxCell>
        <mxCell id="D6j8iwoR0o_ZyqedOxFU-15" value="&lt;h2 style=&quot;color: rgb(51, 51, 51); font-family: Arial, sans-serif; text-align: start; background-color: rgb(255, 255, 255);&quot;&gt;&lt;span style=&quot;font-weight: normal;&quot;&gt;&lt;font style=&quot;font-size: 12px;&quot;&gt;Testimonials&lt;/font&gt;&lt;/span&gt;&lt;/h2&gt;" style="rounded=0;whiteSpace=wrap;html=1;" vertex="1" parent="1">
          <mxGeometry x="130" y="570" width="560" height="140" as="geometry" />
        </mxCell>
        <mxCell id="D6j8iwoR0o_ZyqedOxFU-16" value="" style="rounded=0;whiteSpace=wrap;html=1;fillColor=#CCE5FF;" vertex="1" parent="1">
          <mxGeometry x="100" y="740" width="640" height="170" as="geometry" />
        </mxCell>
        <mxCell id="D6j8iwoR0o_ZyqedOxFU-17" value="Some brands Work with" style="rounded=0;whiteSpace=wrap;html=1;align=left;" vertex="1" parent="1">
          <mxGeometry x="130" y="750" width="170" height="30" as="geometry" />
        </mxCell>
        <mxCell id="D6j8iwoR0o_ZyqedOxFU-18" value="" style="rounded=1;whiteSpace=wrap;html=1;" vertex="1" parent="1">
          <mxGeometry x="130" y="790" width="100" height="20" as="geometry" />
        </mxCell>
        <mxCell id="D6j8iwoR0o_ZyqedOxFU-19" value="" style="rounded=1;whiteSpace=wrap;html=1;" vertex="1" parent="1">
          <mxGeometry x="590" y="790" width="100" height="20" as="geometry" />
        </mxCell>
        <mxCell id="D6j8iwoR0o_ZyqedOxFU-20" value="" style="rounded=1;whiteSpace=wrap;html=1;" vertex="1" parent="1">
          <mxGeometry x="430" y="790" width="100" height="20" as="geometry" />
        </mxCell>
        <mxCell id="D6j8iwoR0o_ZyqedOxFU-21" value="" style="rounded=1;whiteSpace=wrap;html=1;" vertex="1" parent="1">
          <mxGeometry x="280" y="790" width="100" height="20" as="geometry" />
        </mxCell>
        <mxCell id="D6j8iwoR0o_ZyqedOxFU-25" value="" style="rounded=1;whiteSpace=wrap;html=1;" vertex="1" parent="1">
          <mxGeometry x="130" y="820" width="100" height="20" as="geometry" />
        </mxCell>
        <mxCell id="D6j8iwoR0o_ZyqedOxFU-26" value="" style="rounded=1;whiteSpace=wrap;html=1;" vertex="1" parent="1">
          <mxGeometry x="280" y="820" width="100" height="20" as="geometry" />
        </mxCell>
        <mxCell id="D6j8iwoR0o_ZyqedOxFU-27" value="" style="rounded=1;whiteSpace=wrap;html=1;" vertex="1" parent="1">
          <mxGeometry x="430" y="820" width="100" height="20" as="geometry" />
        </mxCell>
        <mxCell id="D6j8iwoR0o_ZyqedOxFU-28" value="" style="rounded=1;whiteSpace=wrap;html=1;" vertex="1" parent="1">
          <mxGeometry x="590" y="820" width="100" height="20" as="geometry" />
        </mxCell>
        <mxCell id="D6j8iwoR0o_ZyqedOxFU-38" value="" style="rounded=1;whiteSpace=wrap;html=1;" vertex="1" parent="1">
          <mxGeometry x="130" y="850" width="100" height="20" as="geometry" />
        </mxCell>
        <mxCell id="D6j8iwoR0o_ZyqedOxFU-39" value="" style="rounded=1;whiteSpace=wrap;html=1;" vertex="1" parent="1">
          <mxGeometry x="590" y="850" width="100" height="20" as="geometry" />
        </mxCell>
        <mxCell id="D6j8iwoR0o_ZyqedOxFU-40" value="" style="rounded=1;whiteSpace=wrap;html=1;" vertex="1" parent="1">
          <mxGeometry x="430" y="850" width="100" height="20" as="geometry" />
        </mxCell>
        <mxCell id="D6j8iwoR0o_ZyqedOxFU-41" value="" style="rounded=1;whiteSpace=wrap;html=1;" vertex="1" parent="1">
          <mxGeometry x="280" y="850" width="100" height="20" as="geometry" />
        </mxCell>
        <mxCell id="D6j8iwoR0o_ZyqedOxFU-42" value="" style="rounded=1;whiteSpace=wrap;html=1;" vertex="1" parent="1">
          <mxGeometry x="130" y="880" width="100" height="20" as="geometry" />
        </mxCell>
        <mxCell id="D6j8iwoR0o_ZyqedOxFU-43" value="" style="rounded=1;whiteSpace=wrap;html=1;" vertex="1" parent="1">
          <mxGeometry x="280" y="880" width="100" height="20" as="geometry" />
        </mxCell>
        <mxCell id="D6j8iwoR0o_ZyqedOxFU-44" value="" style="rounded=1;whiteSpace=wrap;html=1;" vertex="1" parent="1">
          <mxGeometry x="430" y="880" width="100" height="20" as="geometry" />
        </mxCell>
        <mxCell id="D6j8iwoR0o_ZyqedOxFU-45" value="" style="rounded=1;whiteSpace=wrap;html=1;" vertex="1" parent="1">
          <mxGeometry x="590" y="880" width="100" height="20" as="geometry" />
        </mxCell>
        <mxCell id="D6j8iwoR0o_ZyqedOxFU-47" value="" style="rounded=0;whiteSpace=wrap;html=1;fillColor=#CCE5FF;" vertex="1" parent="1">
          <mxGeometry x="35" y="940" width="745" height="140" as="geometry" />
        </mxCell>
        <mxCell id="D6j8iwoR0o_ZyqedOxFU-48" value="Paragraph" style="rounded=0;whiteSpace=wrap;html=1;" vertex="1" parent="1">
          <mxGeometry x="330" y="960" width="120" height="20" as="geometry" />
        </mxCell>
        <mxCell id="D6j8iwoR0o_ZyqedOxFU-49" value="H3" style="rounded=0;whiteSpace=wrap;html=1;" vertex="1" parent="1">
          <mxGeometry x="230" y="990" width="320" height="30" as="geometry" />
        </mxCell>
        <mxCell id="D6j8iwoR0o_ZyqedOxFU-50" value="Get in touch" style="rounded=1;whiteSpace=wrap;html=1;" vertex="1" parent="1">
          <mxGeometry x="330" y="1030" width="120" height="30" as="geometry" />
        </mxCell>
        <mxCell id="D6j8iwoR0o_ZyqedOxFU-51" value="Footer" style="rounded=0;whiteSpace=wrap;html=1;" vertex="1" parent="1">
          <mxGeometry x="40" y="1080" width="740" height="270" as="geometry" />
        </mxCell>
      </root>
    </mxGraphModel>
  </diagram>
</mxfile>
